<svg class="mr-sm" xmlns="http://www.w3.org/2000/svg" viewBox="0 -50 500 500" height="14" width="14" style="transform: matrix(1, 0, 0, -1, 0, 0);"><path fill="currentColor" d="M313.6 160c74.2002 0 134.4 -60.2002 134.4 -134.4v-41.5996c0 -26.5 -21.5 -48 -48 -48h-352c-26.5 0 -48 21.5 -48 48v41.5996c0 74.2002 60.2002 134.4 134.4 134.4c28.7998 0 42.5 -16 89.5996 -16s60.9004 16 89.5996 16zM416 -16v41.5996 c0 56.5 -45.9004 102.4 -102.4 102.4c-19.5996 0 -39.1992 -16 -89.5996 -16c-50.5 0 -70 16 -89.5996 16c-56.5 0 -102.4 -45.9004 -102.4 -102.4v-41.5996c0 -8.7998 7.2002 -16 16 -16h352c8.7998 0 16 7.2002 16 16zM224 192c-70.7002 0 -128 57.2998 -128 128 s57.2998 128 128 128s128 -57.2998 128 -128s-57.2998 -128 -128 -128zM224 416c-52.9004 0 -96 -43.0996 -96 -96s43.0996 -96 96 -96s96 43.0996 96 96s-43.0996 96 -96 96z"></path></svg>