<svg width="19" height="19" viewBox="0 0 19 19" fill="none" xmlns="http://www.w3.org/2000/svg">
                                    <path fill-rule="evenodd" clip-rule="evenodd" d="M9.5 4C11.0113 4 12.3802 4.60952 13.3743 5.59615C13.3792 5.60106 13.3842 5.60598 13.3891 5.61091C13.394 5.61584 13.3989 5.62078 13.4038 5.62573C14.3905 6.61984 15 7.98874 15 9.5C15 12.5376 12.5376 15 9.5 15C6.46243 15 4 12.5376 4 9.5C4 6.46243 6.46243 4 9.5 4Z" fill="currentColor"></path>
                                    <path fill-rule="evenodd" clip-rule="evenodd" d="M9.5 3C9.22386 3 9 2.77614 9 2.5V0.5C9 0.223858 9.22386 1.20706e-08 9.5 0C9.77614 -1.20706e-08 10 0.223858 10 0.5V2.5C10 2.77614 9.77614 3 9.5 3Z" fill="currentColor"></path>
                                    <path fill-rule="evenodd" clip-rule="evenodd" d="M14.0962 4.90372C13.9009 4.70846 13.9009 4.39188 14.0962 4.19662L15.5104 2.7824C15.7057 2.58714 16.0223 2.58714 16.2175 2.7824C16.4128 2.97767 16.4128 3.29425 16.2175 3.48951L14.8033 4.90372C14.608 5.09899 14.2915 5.09899 14.0962 4.90372Z" fill="currentColor"></path>
                                    <path fill-rule="evenodd" clip-rule="evenodd" d="M16 9C16 8.72386 16.2239 8.5 16.5 8.5H18.5C18.7761 8.5 19 8.72386 19 9C19 9.27614 18.7761 9.5 18.5 9.5H16.5C16.2239 9.5 16 9.27614 16 9Z" fill="currentColor"></path>
                                    <path fill-rule="evenodd" clip-rule="evenodd" d="M14.4497 13.7426C14.645 13.5473 14.9616 13.5473 15.1568 13.7426L16.5711 15.1568C16.7663 15.3521 16.7663 15.6686 16.5711 15.8639C16.3758 16.0592 16.0592 16.0592 15.8639 15.8639L14.4497 14.4497C14.2545 14.2544 14.2545 13.9379 14.4497 13.7426Z" fill="currentColor"></path>
                                    <path fill-rule="evenodd" clip-rule="evenodd" d="M9.5 19C9.22386 19 9 18.7761 9 18.5V16.5C9 16.2239 9.22386 16 9.5 16C9.77614 16 10 16.2239 10 16.5V18.5C10 18.7761 9.77614 19 9.5 19Z" fill="currentColor"></path>
                                    <path fill-rule="evenodd" clip-rule="evenodd" d="M2.78251 16.2174C2.58725 16.0222 2.58725 15.7056 2.78251 15.5103L4.19672 14.0961C4.39198 13.9009 4.70857 13.9009 4.90383 14.0961C5.09909 14.2914 5.09909 14.608 4.90383 14.8032L3.48962 16.2174C3.29435 16.4127 2.97777 16.4127 2.78251 16.2174Z" fill="currentColor"></path>
                                    <path fill-rule="evenodd" clip-rule="evenodd" d="M0 9C0 8.72386 0.223858 8.5 0.5 8.5H2.5C2.77614 8.5 3 8.72386 3 9C3 9.27614 2.77614 9.5 2.5 9.5H0.5C0.223858 9.5 0 9.27614 0 9Z" fill="currentColor"></path>
                                    <path fill-rule="evenodd" clip-rule="evenodd" d="M3.13601 2.42887C3.33127 2.23361 3.64785 2.23361 3.84312 2.42887L5.25733 3.84308C5.45259 4.03835 5.45259 4.35493 5.25733 4.55019C5.06207 4.74545 4.74549 4.74545 4.55022 4.55019L3.13601 3.13598C2.94075 2.94072 2.94075 2.62413 3.13601 2.42887Z" fill="currentColor"></path>
</svg>